<svg width="35" height="36" viewBox="0 0 35 36" fill="none" xmlns="http://www.w3.org/2000/svg">
<path d="M26.106 4.99933C24.9628 4.99933 23.8663 5.45348 23.0579 6.26188C22.2495 7.07027 21.7954 8.16669 21.7954 9.30993V26.5523C21.7954 27.6956 22.2495 28.792 23.0579 29.6004C23.8663 30.4088 24.9628 30.8629 26.106 30.8629C27.2492 30.8629 28.3457 30.4088 29.1541 29.6004C29.9624 28.792 30.4166 27.6956 30.4166 26.5523C30.4166 25.4091 29.9624 24.3127 29.1541 23.5043C28.3457 22.6959 27.2492 22.2417 26.106 22.2417H8.86358C7.72034 22.2417 6.62392 22.6959 5.81553 23.5043C5.00713 24.3127 4.55298 25.4091 4.55298 26.5523C4.55298 27.6956 5.00713 28.792 5.81553 29.6004C6.62392 30.4088 7.72034 30.8629 8.86358 30.8629C10.0068 30.8629 11.1032 30.4088 11.9116 29.6004C12.72 28.792 13.1742 27.6956 13.1742 26.5523V9.30993C13.1742 8.16669 12.72 7.07027 11.9116 6.26188C11.1032 5.45348 10.0068 4.99933 8.86358 4.99933C7.72034 4.99933 6.62392 5.45348 5.81553 6.26188C5.00713 7.07027 4.55298 8.16669 4.55298 9.30993C4.55298 10.4532 5.00713 11.5496 5.81553 12.358C6.62392 13.1664 7.72034 13.6205 8.86358 13.6205H26.106C27.2492 13.6205 28.3457 13.1664 29.1541 12.358C29.9624 11.5496 30.4166 10.4532 30.4166 9.30993C30.4166 8.16669 29.9624 7.07027 29.1541 6.26188C28.3457 5.45348 27.2492 4.99933 26.106 4.99933Z" stroke="#D73D35" stroke-width="2.29899" stroke-linecap="round" stroke-linejoin="round"/>
</svg>
