<svg width="42" height="42" viewBox="0 0 42 42" fill="none" xmlns="http://www.w3.org/2000/svg">
<path d="M2.107 7.098L5.31475 3.8885C5.31475 3.8885 17.0783 7.81025 23.8525 11.732L31.395 4.1895C32.5203 3.06425 33.9517 2.28375 35.5302 2.0685C36.7342 1.904 38.2113 1.75 39.5378 1.75L40.25 2.46225C40.25 3.787 40.096 5.26575 39.9315 6.46975C39.7163 8.04825 38.9358 9.47975 37.8105 10.6067L30.268 18.1493C34.1897 24.9218 38.1115 36.6852 38.1115 36.6852L34.902 39.893C34.902 39.893 28.4865 30.625 23.1385 25.277C23.1385 25.277 19.1765 27.8145 13.1583 33.8345C13.1583 33.8345 13.8705 36.6853 13.8705 39.5378L13.1583 40.25C13.1583 40.25 10.3057 36.6853 7.81025 34.1898C5.31475 31.6943 1.75 28.8435 1.75 28.8435L2.46225 28.1295C5.31475 28.1295 8.16725 28.8418 8.16725 28.8418C14.1855 22.8235 16.723 18.8615 16.723 18.8615C11.375 13.5135 2.107 7.098 2.107 7.098Z" stroke="#D73D35" stroke-width="2"/>
</svg>
