<svg width="35" height="35" viewBox="0 0 35 35" fill="none" xmlns="http://www.w3.org/2000/svg">
<path d="M30.8673 23.0744C29.9532 25.2361 28.5235 27.141 26.7031 28.6226C24.8827 30.1041 22.7271 31.1172 20.4248 31.5731C18.1225 32.0291 15.7435 31.9142 13.4958 31.2384C11.2482 30.5626 9.20027 29.3464 7.53119 27.6963C5.86212 26.0462 4.62268 24.0123 3.92123 21.7725C3.21978 19.5327 3.07768 17.1552 3.50736 14.8478C3.93703 12.5404 4.9254 10.3734 6.38605 8.53621C7.8467 6.69903 9.73515 5.24763 11.8863 4.3089" stroke="#D73D35" stroke-width="2.29899" stroke-linecap="round" stroke-linejoin="round"/>
<path d="M32.0031 17.4848C32.0031 15.5979 31.6314 13.7295 30.9093 11.9862C30.1872 10.2429 29.1288 8.65889 27.7946 7.32464C26.4603 5.99038 24.8763 4.93199 23.1331 4.2099C21.3898 3.48781 19.5213 3.11615 17.6344 3.11615V17.4848H32.0031Z" stroke="#D73D35" stroke-width="2.29899" stroke-linecap="round" stroke-linejoin="round"/>
</svg>
